<?xml version="1.0" standalone="no"?>
<!DOCTYPE svg PUBLIC "-//W3C//DTD SVG 20010904//EN"
 "http://www.w3.org/TR/2001/REC-SVG-20010904/DTD/svg10.dtd">
<svg version="1.0" xmlns="http://www.w3.org/2000/svg"
 width="260.000000pt" height="260.000000pt" viewBox="0 0 260.000000 260.000000"
 preserveAspectRatio="xMidYMid meet">
<metadata>
Created by potrace 1.14, written by Peter Selinger 2001-2017
</metadata>
<g transform="translate(0.000000,260.000000) scale(0.100000,-0.100000)"
fill="#000000" stroke="none">
<path d="M1178 2399 c-14 -4 -41 -6 -60 -4 -18 1 -45 -4 -60 -11 -15 -8 -38
-14 -53 -14 -14 0 -34 -9 -45 -20 -11 -11 -32 -20 -48 -20 -24 0 -101 -50
-110 -72 -2 -5 -11 -8 -19 -8 -9 0 -32 -12 -52 -27 -55 -41 -161 -155 -161
-172 0 -9 -9 -41 -21 -71 -57 -148 -58 -217 -9 -425 10 -44 24 -108 31 -142 6
-35 16 -63 20 -63 5 0 9 -11 9 -24 0 -19 9 -27 41 -40 39 -16 41 -18 37 -54
-3 -20 -8 -45 -13 -56 -7 -15 -5 -17 11 -12 17 5 22 -1 32 -41 7 -26 19 -61
27 -78 7 -16 19 -48 25 -70 6 -22 20 -59 31 -82 10 -24 19 -48 19 -53 0 -16
30 -72 50 -95 10 -11 21 -30 24 -42 7 -21 83 -142 96 -153 4 -3 15 -20 25 -38
11 -17 22 -32 26 -32 4 0 9 -11 13 -23 5 -22 103 -97 126 -97 5 0 24 -6 42
-14 18 -8 46 -18 62 -21 25 -5 28 -9 22 -35 -6 -33 12 -41 34 -15 14 17 60 21
60 5 0 -5 15 -1 33 9 27 16 117 27 117 14 0 -2 -11 -21 -25 -41 -14 -20 -25
-42 -25 -48 0 -6 -7 -17 -15 -24 -8 -7 -17 -27 -21 -46 -3 -19 -11 -37 -16
-40 -5 -3 -1 -12 9 -20 13 -10 14 -13 3 -11 -8 2 -5 -1 7 -7 13 -5 23 -20 25
-35 l3 -26 435 -3 435 -2 -100 46 c-55 25 -129 58 -165 74 -190 82 -190 82
-303 201 -104 109 -118 131 -97 144 5 3 10 15 10 25 0 11 8 24 19 29 15 9 19
23 19 82 1 40 5 75 10 78 16 10 30 73 37 161 l6 85 -19 -28 -19 -27 1 32 c0
18 -3 47 -7 65 -6 28 -3 35 23 55 16 12 30 30 30 39 0 33 12 48 56 70 53 25
80 71 96 160 5 32 14 59 19 59 18 0 9 50 -13 73 -13 14 -31 36 -40 50 -10 14
-31 28 -48 32 -16 4 -30 10 -30 14 0 24 24 120 29 117 3 -2 6 42 6 97 0 79 -4
110 -19 136 -10 18 -16 41 -13 51 2 10 -6 35 -19 56 -12 22 -32 55 -42 74 -25
45 -193 212 -229 229 -16 7 -35 17 -43 22 -108 59 -207 95 -236 85 -10 -3 -30
0 -44 7 -15 8 -36 11 -52 6z m-172 -326 c12 -7 24 -10 27 -6 4 3 12 -6 18 -20
9 -20 16 -24 29 -17 30 16 63 18 154 10 54 -5 92 -14 97 -21 6 -10 34 -13 101
-12 96 2 198 -18 198 -39 0 -7 4 -7 13 0 18 15 64 8 87 -13 33 -30 63 -149 67
-265 1 -58 0 -99 -3 -92 -3 6 -13 12 -23 12 -9 0 -22 5 -28 11 -9 9 -21 8 -47
-5 -19 -9 -38 -20 -40 -25 -3 -5 -18 -12 -33 -16 -16 -3 -35 -13 -43 -20 -33
-29 -92 -55 -125 -55 -18 0 -36 -4 -39 -8 -3 -5 -19 -7 -35 -4 -17 2 -29 8
-26 12 8 13 -135 34 -209 31 -51 -2 -73 -8 -87 -22 -20 -20 -49 -26 -49 -9 0
6 5 10 12 10 6 0 9 3 5 6 -3 3 -18 -3 -34 -14 -15 -11 -42 -23 -59 -26 -68
-15 -105 -88 -97 -194 6 -74 19 -107 54 -137 l24 -20 -19 23 c-19 22 -19 22 0
23 10 1 22 1 27 0 9 -1 9 -3 -8 44 -14 40 -20 170 -9 199 13 35 84 10 84 -29
0 -29 -18 -43 -26 -20 -5 13 -9 14 -15 4 -10 -17 -2 -29 21 -29 14 0 21 -10
26 -35 8 -44 -2 -58 -11 -16 -4 17 -11 34 -17 37 -7 4 -8 -4 -3 -25 3 -17 3
-36 -1 -43 -4 -7 -9 -31 -10 -55 -1 -38 2 -45 32 -65 39 -27 43 -38 12 -38
-12 0 -19 -2 -16 -6 10 -10 233 -14 265 -5 21 6 35 6 39 0 4 -6 11 -5 20 2 21
17 78 125 100 187 10 30 26 58 35 63 15 8 20 -1 38 -59 11 -37 23 -82 26 -100
4 -18 17 -45 29 -60 52 -62 48 -82 -21 -111 -17 -7 -49 -35 -71 -62 -22 -28
-42 -49 -44 -48 -8 5 -48 -14 -48 -23 0 -6 -6 -6 -15 2 -12 10 -16 9 -21 -4
-3 -9 -10 -13 -15 -10 -5 3 -9 -2 -9 -10 0 -17 25 -22 35 -6 3 5 12 7 20 3 8
-3 23 -2 33 2 28 12 56 13 70 2 9 -7 20 -6 38 2 63 28 74 -2 15 -43 -30 -21
-61 -30 -132 -40 -117 -16 -127 -14 -126 29 0 18 -5 40 -12 49 -12 15 -15 14
-30 -2 -9 -10 -28 -22 -42 -25 -24 -6 -26 -10 -27 -74 -1 -37 -7 -72 -12 -77
-6 -6 -10 -16 -10 -24 0 -14 -36 -52 -50 -52 -4 0 -19 11 -34 25 -23 21 -25
27 -14 45 11 18 10 23 -7 36 -11 8 -19 22 -17 30 2 11 -3 13 -22 8 -16 -4 -26
-2 -26 5 0 10 -6 18 -48 67 -21 23 -66 131 -77 184 -4 19 -18 61 -31 92 -29
69 -34 195 -9 204 20 8 21 84 1 84 -27 0 -34 70 -11 114 8 15 15 36 15 46 0
10 7 23 16 31 20 17 18 165 -3 191 -16 18 -20 177 -6 187 5 3 17 22 27 42 11
20 32 44 48 53 15 10 28 23 28 30 0 17 86 16 116 -1z m541 -710 c-3 -10 -5 -2
-5 17 0 19 2 27 5 18 2 -10 2 -26 0 -35z m30 0 c-3 -10 -5 -2 -5 17 0 19 2 27
5 18 2 -10 2 -26 0 -35z m-337 -3 c0 -16 -4 -30 -10 -30 -5 0 -10 14 -10 30 0
17 5 30 10 30 6 0 10 -13 10 -30z m29 3 c0 -25 -1 -26 -9 -8 -12 27 -12 35 0
35 6 0 10 -12 9 -27z m-179 -25 l-1 -43 -14 34 c-15 33 -13 51 6 51 5 0 9 -19
9 -42z m427 -5 c-3 -10 -5 -2 -5 17 0 19 2 27 5 18 2 -10 2 -26 0 -35z m-452
-12 c3 -5 1 -12 -5 -16 -5 -3 -10 1 -10 9 0 18 6 21 15 7z m872 -33 c-3 -8 -6
-5 -6 6 -1 11 2 17 5 13 3 -3 4 -12 1 -19z m-21 -81 c-8 -21 -28 -42 -46 -52
l-32 -17 15 22 c8 12 24 28 35 36 11 8 24 29 28 47 5 19 9 25 11 15 2 -9 -3
-32 -11 -51z m-450 -483 c10 -12 12 -12 17 -1 4 11 38 16 55 8 1 0 -6 -18 -17
-40 -18 -35 -26 -40 -81 -52 -48 -10 -59 -16 -54 -29 4 -8 10 -32 14 -52 8
-43 -4 -60 -38 -53 -15 2 -22 -1 -22 -11 0 -23 -44 13 -60 49 -7 15 -15 26
-17 23 -10 -9 -43 14 -43 30 0 8 -4 13 -9 10 -12 -8 -21 18 -21 60 0 52 15 74
53 75 18 1 43 4 57 8 36 10 153 -7 166 -25z"/>
<path d="M1353 993 c9 -2 23 -2 30 0 6 3 -1 5 -18 5 -16 0 -22 -2 -12 -5z"/>
<path d="M504 1267 c-7 -19 10 -59 51 -119 43 -65 44 -58 4 26 -18 38 -29 74
-26 86 6 23 -20 29 -29 7z"/>
<path d="M852 413 c-35 -69 -21 -110 86 -242 43 -53 89 -113 102 -133 l25 -38
85 1 c81 1 83 1 45 12 -64 19 -108 51 -199 148 -97 103 -116 137 -116 207 0
54 -13 74 -28 45z"/>
<path d="M750 271 c-61 -65 -115 -95 -269 -153 -57 -21 -122 -48 -145 -60 -22
-11 -63 -29 -91 -39 l-50 -18 297 0 c274 -1 297 0 302 17 6 21 20 312 15 311
-2 0 -29 -27 -59 -58z"/>
</g>
</svg>
